<svg width="21.601mm" height="11.413mm" version="1.1" viewBox="0 0 21.601 11.413" xmlns="http://www.w3.org/2000/svg">
 <g transform="translate(135.53 -80.383)">
  <g transform="translate(-175.05 76.644)">
   <g transform="matrix(.15299 0 0 .15299 33.933 -15.445)" style="fill:#f44336">
    <path transform="scale(.26458)" d="m143.57 473.95-5.666 32.145h63.877l-38.332 136.41h31.428l41.191-136.41h221.96l8.6113-32.145z" style="fill-rule:evenodd;fill:#f44336;paint-order:normal"/>
    <path d="m120.01 146.81 48.511 0.18899-1.0764 5.0434h-49.364z" style="fill-rule:evenodd;fill:#f44336;paint-order:normal"/>
    <g transform="matrix(1 0 -.28332 1.0362 0 -4.8822)" style="fill:#f44336" aria-label="RAVE">
     <path d="m115.49 151.07s-0.45552-7.1995-2.844-8.1456c1.4542-0.73428 2.3384-1.8882 2.3486-3.7134 0.0145-2.5805-1.5035-4.07-4.4032-4.154h-8.3188c-0.40068 0-0.75556 0.0442-0.76484 0.29372l-0.62174 16.714s2.9095-0.55139 6.3766-0.61473c-0.13362-0.63837 0.12101-5.7777 0.12101-5.7777h0.41976c1.9514 0.0344 1.3136 0.82955 1.905 5.6722l5.6185-0.18369zm-8.129-11.565c3e-3 -0.52449 0.0239-0.86017 0.2344-0.96507h0.22896c0.64871 0 2.1178 0.021 2.1101 1.3847-9e-3 1.6154-1.2134 2.014-2.1864 2.014-0.41716-0.46155-0.39148-1.6364-0.38701-2.4336z" style="fill:#f44336;stroke-width:.51219"/>
     <path d="m116.33 151.41 5.6193-1e-3 0.43152-2.7608h3.2817l0.96211 2.6805s1.5782 2e-3 2.246 2e-3c0.7632 0 1.5074-0.021 2.2706-0.021h0.87768c0.51516 0 0.65878-0.0944 0.66032-0.36713l-4.4332-15.554c2e-3 -0.39861-0.48417-0.41959-0.86577-0.41959h-1.6027c-1.1257 0-2.1944 0.042-3.3201 0.042h-1.6027c-0.0576 0.0629-0.15406 0.25176-0.15406 0.25176zm8.037-8.9017 0.96683 2.4683-1.7112-0.0212z" style="fill:#f44336;stroke-width:.51219"/>
     <path d="m130.45 135.37 4.0266 16.032 7.1841-0.0945s1.727-6.0252 2.0594-7.4623l2.1943-8.4967c-0.0185-0.1049-0.0746-0.29372-0.22696-0.35666h-1.5264c-1.7172 0-4.0314 5e-5 -4.0314 5e-5l-2.1214 10.136-2.9143-10.115s-2.4766 0.042-4.3083 0.042c-0.17172 0-0.33436 0.0839-0.33566 0.3147z" style="fill:#f44336;stroke-width:.51219"/>
     <path d="m146.89 150.68c-2.8e-4 0.1049 0.0178 0.23077 0.0361 0.37763l0.26523 0.33567 11.248-0.011s-0.0425-2.8604-0.0369-3.8674l5e-3 -0.79723c-0.075-0.23077-0.41809-0.29371-0.72337-0.29371-1.6218 0-3.1873 0.16784-4.8663 0.16784l9e-3 -1.5105h0.24804c1.5264 0 1.8712-0.0839 3.379-0.16784 0.0189 0.021 0.057 0.042 0.0952 0.042 0.0763 0 0.13391-0.0629 0.15382-0.2098 6e-3 -1.007-0.0461-1.9721-0.0405-2.9791 2.8e-4 -0.1049 0.0204-0.23077 0.021-0.33567 1e-3 -0.23078-0.0743-0.35666-0.475-0.35666h-3.4543c3e-3 -0.56645 0.10152-1.0909 0.16196-1.6574 1.526 0.0629 2.976 0.0839 4.5024 0.0839h0.26712c0.64871 0 0.57534-0.52449 0.5777-0.94408l-0.0636-3.5666h-11.057l0.0113 4.4687c9e-3 3.5947-0.24008 7.2352-0.26024 10.823z" style="fill:#f44336;stroke-width:.51219"/>
    </g>
    <g transform="matrix(1.0451 0 -.29611 .95681 -4.1427 0)" style="fill:#f44336" aria-label="INN">
     <path d="m161.28 175.56h8.3648v-15.255c-1.0878 0.16474-8.6556 0.0556-8.6556 0.0556s0.0199 0.49853 0.0399 0.71788v0.29912c0 0.39882 0.0199 0.81759 0.0399 1.2364 0.25674 4.6528 0.0289 8.4478 0.21102 12.946z" style="fill:#f44336;stroke-width:.51049"/>
     <path d="m171.43 175.34 0.5195 0.23929h5.3386c0.34816 0 0.45537-0.23929 0.44724-0.45865l-0.0468-1.2563c-0.032-0.87741-0.11151-1.7548-0.14387-2.6322-0.0433-1.1765-0.0632-2.3331-0.10684-3.5096 1.0209 2.1836 2.0531 4.3572 3.074 6.5407 0.3029 0.65806 0.57889 1.2164 0.71964 1.2563h3.4121c1.207 0 2.3429-0.0399 3.5499-0.0399h0.30175c0.34816 0 0.67164-0.0399 0.73314-0.25924l-0.25618-6.9196c-0.0975-2.6322-0.19125-5.1648-0.36309-7.9366-3.4e-4 -0.0199-0.0718-0.0598-0.18791-0.0598h-0.88202c-0.5803 0-1.7888-0.0399-2.8333-0.0399-0.99809 0-1.8554 0.0399-1.8466 0.27918 0.0726 1.3361 0.0511 2.6322 0.0983 3.9085l0.14318 3.8686-1.7599-3.6492c-0.67544-1.3161-1.9482-4.3472-2.2036-4.3472h-7.9847c-0.0458 0.0199-0.0869 0.15952-0.0833 0.25923l0.0304 0.81759c0.0245 3.1706 0.023 6.2615 0.16357 9.4322zm17.18-14.956-2e-3 -0.0399z" style="fill:#f44336;stroke-width:.55076"/>
     <path d="m188.82 175.52h-8.4547l-9.1884-15.255c1.1377 0.16474 8.2548 0.0556 8.2548 0.0556s0.29808 0.49853 0.41856 0.71788l0.1902 0.29912c0.25359 0.39882 0.50097 0.81759 0.74824 1.2364 2.7147 4.6528 5.344 8.4478 8.0313 12.946z" style="fill:#f44336;stroke-width:.49747"/>
     <path d="m190.61 175.34 0.5195 0.23929h5.3386c0.34816 0 0.45537-0.23929 0.44724-0.45865l-0.0468-1.2563c-0.032-0.87741-0.11151-1.7548-0.14387-2.6322-0.0433-1.1765-0.0632-2.3331-0.10684-3.5096 1.0209 2.1836 2.0531 4.3572 3.074 6.5407 0.3029 0.65806 0.57889 1.2164 0.71964 1.2563h3.4121c1.207 0 2.3429-0.0399 3.5499-0.0399h0.30175c0.34816 0 0.67164-0.0399 0.73314-0.25924l-0.25618-6.9196c-0.0975-2.6322-0.19125-5.1648-0.36309-7.9366-3.4e-4 -0.0199-0.0718-0.0598-0.18791-0.0598h-0.88202c-0.5803 0-1.7888-0.0399-2.8333-0.0399-0.99809 0-1.8554 0.0399-1.8466 0.27918 0.0726 1.3361 0.0511 2.6322 0.0983 3.9085l0.14318 3.8686-1.7599-3.6492c-0.67544-1.3161-1.9482-4.3472-2.2036-4.3472h-7.9847c-0.0458 0.0199-0.0869 0.15952-0.0833 0.25923l0.0304 0.81759c0.0245 3.1706 0.023 6.2615 0.16357 9.4322zm17.18-14.956-2e-3 -0.0399z" style="fill:#f44336;stroke-width:.55076"/>
     <path d="m208 175.52h-8.4547l-9.1884-15.255c1.1377 0.16474 8.2548 0.0556 8.2548 0.0556s0.29808 0.49853 0.41856 0.71788l0.1902 0.29912c0.25359 0.39882 0.50097 0.81759 0.74824 1.2364 2.7147 4.6528 5.344 8.4478 8.0313 12.946z" style="fill:#f44336;stroke-width:.49747"/>
    </g>
    <path d="m125.64 152.05 8.0765-26.647h-9.0714l-7.3205 26.647z" style="fill-rule:evenodd;fill:#f44336;paint-order:normal"/>
   </g>
   <g style="fill:#263238;stroke-width:.11656" aria-label="Laramie, Wy">
    <path d="m43.282 11.748q0-0.0535-0.0057-0.09107-0.0046-0.0387-0.02277-0.06261-0.01821-0.0239-0.05236-0.03415-0.03301-0.01138-0.08879-0.01138-0.03756 0-0.0922 0.0046-0.05464 0.0034-0.11383 0.01252l-0.01138-0.09448q0.16733-0.04326 0.28685-0.06375 0.12066-0.02049 0.1992-0.02049 0.07513 0 0.11497 0.02049 0.04098 0.01935 0.05919 0.05919 0.01935 0.0387 0.02277 0.09562 0.0034 0.05692 0.0034 0.12977 0 0.0046-0.0011 0.07513-0.0011 0.07057-0.0046 0.18782-0.0023 0.11611-0.0068 0.27092-0.0034 0.15367-0.0091 0.32669-0.0046 0.17188-0.01138 0.35401-0.0068 0.18213-0.01594 0.35401-8e-3 0.17188-0.01821 0.32556-0.0091 0.15367-0.02049 0.26864 0.10928-0.01594 0.20603-0.02277 0.09676-8e-3 0.17985-8e-3 0.11725 0 0.21856 0.0068 0.10245 0.0057 0.20148 0.0057 0.06944 0 0.12294-0.02049 0.05464-0.02049 0.09334-0.07171t0.06374-0.13887q0.02618-0.08765 0.03984-0.22311l0.09903 8e-3q-0.0011 0.20034-0.02504 0.33011-0.02277 0.12863-0.06602 0.20376-0.04326 0.07399-0.10586 0.10245-0.06147 0.0296-0.14115 0.0296-0.06033 0-0.13318-0.01138-0.07285-0.01138-0.15936-0.02618-0.08537-0.01366-0.18554-0.02504-0.10017-0.01138-0.21628-0.01138-0.10358 0-0.22538 0.01366-0.12066 0.01252-0.24815 0.04326l-0.02049-0.0023q0.01935-0.15595 0.03301-0.33466 0.0148-0.17985 0.0239-0.37336 0.01024-0.19351 0.01707-0.39613 0.0068-0.20262 0.01024-0.40524 0.0034-0.20262 0.0046-0.39954 0.0011-0.19693 0.0011-0.38019z" style="fill:#263238;stroke-width:.11656"/>
    <path d="m45.871 12.834q0-0.08993-0.0296-0.15595-0.0296-0.06602-0.0774-0.10814-0.04781-0.04212-0.10814-0.06261-0.06033-0.02049-0.12066-0.02049-0.08082 0-0.1366 0.01708-0.05578 0.01707-0.09106 0.04667-0.03415 0.0296-0.05009 0.07057-0.0148 0.03984-0.0148 0.08651 0 0.05464 0.01935 0.11042 0.02049 0.05464 0.05919 0.107l-0.0046 0.01252q-0.06488 0.03187-0.1309 0.03187-0.0387 0-0.07285-0.01138-0.03301-0.01252-0.05805-0.03529-0.0239-0.02277-0.0387-0.05578-0.01366-0.03301-0.01366-0.07399 0-0.06716 0.03187-0.12635 0.03301-0.05919 0.08651-0.10814 0.0535-0.04895 0.12408-0.08765 0.07058-0.0387 0.1457-0.06488 0.07513-0.02732 0.15026-0.04098 0.07627-0.0148 0.14115-0.0148 0.11952 0 0.20376 0.03187 0.08537 0.03187 0.13774 0.09334 0.0535 0.06033 0.0774 0.14684 0.02504 0.08651 0.02504 0.19579 0 0.07513-0.0068 0.16505-0.0057 0.08993-0.01366 0.18896-8e-3 0.09789-0.0148 0.20262-0.0057 0.10472-0.0057 0.20831 0 0.16392 0.06033 0.24701 0.06147 0.08196 0.1605 0.08196 0.08765 0 0.19579-0.06488l0.03301 0.04895q-0.07627 0.07627-0.16619 0.11611-0.08993 0.03984-0.18896 0.03984-0.07399 0-0.1366-0.02504-0.06261-0.02504-0.10814-0.07399-0.04553-0.05009-0.07057-0.12521-0.02504-0.07513-0.02504-0.17416 0-0.0296 0.0011-0.05919 0.0023-0.0296 8e-3 -0.06261h-0.0068q-0.04895 0.09789-0.11383 0.19351-0.06374 0.09448-0.14115 0.16961-0.07627 0.07399-0.16392 0.11952-0.08651 0.04667-0.18213 0.04667-0.07854 0-0.14343-0.02732-0.06488-0.02732-0.11155-0.07513-0.04553-0.04781-0.07171-0.11269-0.02504-0.06602-0.02504-0.14343 0-0.10017 0.03643-0.18213 0.03756-0.08196 0.10245-0.14684 0.06602-0.06488 0.15709-0.11155 0.09106-0.04781 0.19806-0.07854 0.107-0.03187 0.22652-0.04667 0.11952-0.01594 0.2436-0.01594 8e-3 -0.07171 0.01252-0.13887 0.0057-0.06716 0.0057-0.14798zm-0.69892 0.78202q0 0.04439 0.0091 0.08537 0.01024 0.03984 0.03073 0.07058 0.02163 0.03073 0.0535 0.04895 0.03301 0.01707 0.07854 0.01707 0.05122 0 0.10586-0.0239 0.05464-0.0239 0.107-0.06602 0.0535-0.04212 0.10131-0.10017 0.04895-0.05919 0.08765-0.12863 0.0387-0.06944 0.06374-0.1457 0.02618-0.07741 0.03415-0.15822-0.08424 0.0023-0.16733 0.01138-0.0831 8e-3 -0.15822 0.02618-0.07399 0.01821-0.13774 0.04781-0.06374 0.0296-0.11042 0.07399-0.04553 0.04326-0.07171 0.10359-0.02618 0.05919-0.02618 0.13774z" style="fill:#263238;stroke-width:.11656"/>
    <path d="m46.758 14.034-0.01821-0.0011q0.0091-0.10814 0.01707-0.23563 8e-3 -0.12749 0.0148-0.2584 0.0068-0.13204 0.01138-0.26067 0.0057-0.12977 0.0091-0.24132 0.0046-0.11269 0.0057-0.20148 0.0023-0.08879 0.0023-0.14001 0-0.04212-0.0034-0.07285t-0.01594-0.05122q-0.01138-0.02049-0.03415-0.0296-0.02277-0.01025-0.06147-0.01025-0.01935 0-0.03984 0.0023t-0.04553 0.0068q-0.02504 0.0046-0.05692 0.01252-0.03073 0.0068-0.07171 0.01707l-0.01707-0.08196q0.18896-0.0683 0.3062-0.09562 0.11724-0.02846 0.15822-0.02846 0.07513 0 0.107 0.04439 0.03301 0.04326 0.03301 0.12977 0 8e-3 -0.0023 0.04667-0.0023 0.0387-0.0068 0.10131-0.0034 0.06147-0.0091 0.14343-0.0057 0.08196-0.01366 0.17644-0.0068 0.09334-0.01594 0.19579-0.0091 0.10131-0.01935 0.20262l0.01138 0.0011q0.05464-0.22311 0.12294-0.41548 0.06944-0.19351 0.15481-0.3358 0.08651-0.14229 0.18896-0.22311 0.10359-0.08196 0.22652-0.08196 0.04326 0 0.08082 0.01366t0.06488 0.0387q0.02732 0.02391 0.04326 0.05805 0.01594 0.03301 0.01594 0.07285 0 0.05122-0.02277 0.09903-0.02163 0.04667-0.06944 0.0831h-0.0091q-0.04781-0.03984-0.09107-0.05692-0.04212-0.01821-0.08993-0.01821-0.05122 0-0.09903 0.01935t-0.08765 0.05578q-0.06488 0.05919-0.12066 0.15709-0.05578 0.09676-0.10245 0.21514-0.04553 0.11838-0.0831 0.24929-0.03643 0.12977-0.06375 0.25384-0.02618 0.12294-0.04326 0.23222-0.01594 0.10814-0.02277 0.18213z" style="fill:#263238;stroke-width:.11656"/>
    <path d="m48.858 12.834q0-0.08993-0.0296-0.15595-0.0296-0.06602-0.07741-0.10814-0.04781-0.04212-0.10814-0.06261-0.06033-0.02049-0.12066-0.02049-0.08082 0-0.1366 0.01708-0.05578 0.01707-0.09106 0.04667-0.03415 0.0296-0.05009 0.07057-0.0148 0.03984-0.0148 0.08651 0 0.05464 0.01935 0.11042 0.02049 0.05464 0.05919 0.107l-0.0046 0.01252q-0.06488 0.03187-0.1309 0.03187-0.0387 0-0.07285-0.01138-0.03301-0.01252-0.05805-0.03529-0.0239-0.02277-0.0387-0.05578-0.01366-0.03301-0.01366-0.07399 0-0.06716 0.03187-0.12635 0.03301-0.05919 0.08651-0.10814 0.0535-0.04895 0.12408-0.08765 0.07058-0.0387 0.1457-0.06488 0.07513-0.02732 0.15026-0.04098 0.07627-0.0148 0.14115-0.0148 0.11952 0 0.20376 0.03187 0.08537 0.03187 0.13774 0.09334 0.0535 0.06033 0.0774 0.14684 0.02504 0.08651 0.02504 0.19579 0 0.07513-0.0068 0.16505-0.0057 0.08993-0.01366 0.18896-8e-3 0.09789-0.0148 0.20262-0.0057 0.10472-0.0057 0.20831 0 0.16392 0.06033 0.24701 0.06147 0.08196 0.1605 0.08196 0.08765 0 0.19579-0.06488l0.03301 0.04895q-0.07627 0.07627-0.16619 0.11611-0.08993 0.03984-0.18896 0.03984-0.07399 0-0.1366-0.02504-0.06261-0.02504-0.10814-0.07399-0.04553-0.05009-0.07057-0.12521-0.02504-0.07513-0.02504-0.17416 0-0.0296 0.0011-0.05919 0.0023-0.0296 8e-3 -0.06261h-0.0068q-0.04895 0.09789-0.11383 0.19351-0.06375 0.09448-0.14115 0.16961-0.07627 0.07399-0.16392 0.11952-0.08651 0.04667-0.18213 0.04667-0.07854 0-0.14343-0.02732-0.06488-0.02732-0.11155-0.07513-0.04553-0.04781-0.07171-0.11269-0.02504-0.06602-0.02504-0.14343 0-0.10017 0.03643-0.18213 0.03756-0.08196 0.10245-0.14684 0.06602-0.06488 0.15709-0.11155 0.09106-0.04781 0.19806-0.07854 0.107-0.03187 0.22652-0.04667 0.11952-0.01594 0.2436-0.01594 8e-3 -0.07171 0.01252-0.13887 0.0057-0.06716 0.0057-0.14798zm-0.69892 0.78202q0 0.04439 0.0091 0.08537 0.01024 0.03984 0.03073 0.07058 0.02163 0.03073 0.0535 0.04895 0.03301 0.01707 0.07854 0.01707 0.05122 0 0.10586-0.0239 0.05464-0.0239 0.107-0.06602 0.0535-0.04212 0.10131-0.10017 0.04895-0.05919 0.08765-0.12863 0.0387-0.06944 0.06375-0.1457 0.02618-0.07741 0.03415-0.15822-0.08423 0.0023-0.16733 0.01138-0.0831 8e-3 -0.15822 0.02618-0.07399 0.01821-0.13774 0.04781-0.06374 0.0296-0.11042 0.07399-0.04553 0.04326-0.07171 0.10359-0.02618 0.05919-0.02618 0.13774z" style="fill:#263238;stroke-width:.11656"/>
    <path d="m49.427 12.492q0.08082-0.02846 0.15481-0.05122 0.07513-0.0239 0.13774-0.04098 0.06261-0.01708 0.11042-0.02618 0.04781-0.0091 0.07513-0.0091 0.06602 0 0.10245 0.03984 0.03756 0.0387 0.03756 0.13432 0 0.02277-0.0046 0.09789-0.0046 0.07399-0.01366 0.18668-8e-3 0.11269-0.02049 0.25726-0.01252 0.14456-0.02846 0.30734l0.0068 0.0011q0.07968-0.28913 0.16961-0.48492 0.08993-0.19693 0.18327-0.31759 0.09334-0.12066 0.18782-0.17188 0.09448-0.05236 0.18327-0.05236 0.07854 0 0.13318 0.0387 0.05464 0.0387 0.08879 0.10131 0.03415 0.06261 0.05009 0.14229 0.01594 0.07854 0.01594 0.1605 0 0.07171-0.0046 0.15253-0.0046 0.07968-0.01138 0.15822-0.0068 0.07741-0.0148 0.14798-0.0068 0.06944-0.01252 0.1218l0.0068 0.0011q0.07968-0.29368 0.16961-0.49175 0.09107-0.1992 0.18441-0.31986 0.09448-0.12066 0.18896-0.17188 0.09448-0.05236 0.18327-0.05236 0.05691 0 0.11042 0.0239 0.0535 0.0239 0.09448 0.07741 0.04212 0.05236 0.06716 0.13546 0.02504 0.0831 0.02504 0.20034 0 0.03301-0.0046 0.09106-0.0034 0.05692-0.0091 0.12749t-0.01366 0.15026q-0.0068 0.07854-0.01252 0.15481-0.0057 0.07627-0.01024 0.1457-0.0034 0.0683-0.0034 0.11838 0 0.08879 0.0068 0.14456 8e-3 0.05578 0.02504 0.08879 0.01707 0.03187 0.04553 0.04439 0.02846 0.01138 0.06944 0.01138 0.05919 0 0.12294-0.01594 0.06374-0.01708 0.12863-0.04667l0.02163 0.05919q-0.04098 0.03301-0.10359 0.06716-0.06261 0.03415-0.13204 0.06261-0.0683 0.02846-0.1366 0.04553-0.0683 0.01821-0.12066 0.01821-0.06147 0-0.09676-0.03301t-0.0535-0.08993q-0.01707-0.05692-0.02277-0.13318-0.0046-0.07627-0.0046-0.16392 0-0.10586 0.0068-0.22197 8e-3 -0.11611 0.01707-0.22083 0.0091-0.10472 0.01594-0.18896 8e-3 -0.08537 8e-3 -0.12863 0-0.12408-0.04439-0.18554-0.04326-0.06261-0.11838-0.06261-0.05805 0-0.12408 0.05578-0.06488 0.05464-0.1309 0.1514-0.06488 0.09676-0.12635 0.2288-0.06033 0.13091-0.10928 0.28458-0.04895 0.15367-0.0831 0.32214-0.03301 0.16733-0.04326 0.3358l-0.2379 0.0296-0.01821-0.0011q0.01252-0.23904 0.02277-0.42345 0.01138-0.1844 0.01935-0.32214 0.0091-0.13774 0.01366-0.23335 0.0057-0.09562 0.0057-0.15822 0-0.12749-0.04439-0.19237-0.04326-0.06488-0.11155-0.06488-0.06033 0-0.12749 0.05464-0.06602 0.0535-0.1309 0.14912-0.06488 0.09562-0.12521 0.22652-0.05919 0.12977-0.10814 0.28116-0.04781 0.15139-0.08082 0.31872-0.03187 0.16733-0.04212 0.3358l-0.23791 0.0296-0.01821-0.0011q0.0091-0.10814 0.01707-0.23563 8e-3 -0.12749 0.0148-0.2584 0.0068-0.13204 0.01138-0.26067 0.0057-0.12977 0.0091-0.24132 0.0046-0.11269 0.0057-0.20148 0.0023-0.08879 0.0023-0.14001 0-0.04667-0.0068-0.07854t-0.02163-0.05009q-0.01366-0.01935-0.03529-0.02732-0.02163-8e-3 -0.05122-8e-3 -0.04098 0-0.09789 0.01138-0.05692 0.01138-0.12977 0.03073z" style="fill:#263238;stroke-width:.11656"/>
    <path d="m52.809 11.888q-0.03984 0-0.07057-0.01594-0.03073-0.01708-0.05236-0.04326-0.02163-0.02732-0.03301-0.06147-0.01138-0.03529-0.01138-0.07171 0-0.05122 0.01708-0.08993 0.01707-0.03984 0.04439-0.06602 0.02732-0.02732 0.06033-0.03984 0.03301-0.01366 0.06488-0.01366 0.0387 0 0.06944 0.0148 0.03073 0.01366 0.05236 0.0387 0.02277 0.02504 0.03415 0.05805 0.01252 0.03187 0.01252 0.06944 0 0.03984-0.01366 0.07968-0.01366 0.0387-0.0387 0.07057-0.0239 0.03187-0.05919 0.05122-0.03415 0.01935-0.07627 0.01935zm0.09903 0.51451q-0.01935 0.12977-0.03301 0.26067-0.01366 0.12977-0.02277 0.25157-8e-3 0.1218-0.01252 0.23108-0.0034 0.10814-0.0034 0.19579 0 0.11838 0.0034 0.20376 0.0034 0.08423 0.01138 0.14229 8e-3 0.05805 0.01935 0.09334 0.01252 0.03415 0.0296 0.0535 0.01821 0.01821 0.04098 0.0239 0.0239 0.0057 0.0535 0.0057 0.05464 0 0.11724-0.01594 0.06375-0.01708 0.12863-0.04667l0.02163 0.05919q-0.04098 0.03301-0.10359 0.06716-0.06147 0.03415-0.12977 0.06261-0.0683 0.02846-0.13432 0.04553-0.06488 0.01821-0.11269 0.01821-0.03187 0-0.05805-0.0057-0.02618-0.0046-0.04781-0.02504-0.02049-0.02049-0.03756-0.06033-0.01594-0.03984-0.02732-0.10814-0.01025-0.0683-0.01594-0.17074-0.0057-0.10245-0.0057-0.24815 0-0.08537 0.0011-0.19237 0.0023-0.10814 0.0057-0.23108 0.0034-0.12408 0.0091-0.26067 0.0057-0.13774 0.0148-0.28344 0.0023-0.03187 0.01708-0.05122 0.0148-0.02049 0.03643-0.03073 0.02163-0.01138 0.04553-0.0148 0.02504-0.0046 0.04553-0.0046 0.07627 0 0.14343 0.03529z" style="fill:#263238;stroke-width:.11656"/>
    <path d="m54.506 13.651q0.0068 0.0034 0.01707 0.01024 0.01138 0.0057 0.02049 0.01366 0.0091 0.0068 0.01594 0.01594 0.0068 8e-3 0.0068 0.01594 0 0.0046-0.0034 0.0091-0.06374 0.08879-0.13774 0.15481-0.07285 0.06488-0.15253 0.10928-0.07854 0.04326-0.1605 0.06375-0.08196 0.02163-0.16164 0.02163-0.1366 0-0.25043-0.05578t-0.19579-0.15253q-0.08196-0.09676-0.12863-0.22652-0.04553-0.1309-0.04553-0.28002 0-0.1218 0.02618-0.2436 0.02732-0.1218 0.0774-0.23222 0.05122-0.11042 0.12408-0.2049 0.07285-0.09562 0.16505-0.16505 0.09334-0.07057 0.20376-0.11042 0.11155-0.03984 0.23904-0.03984 0.08423 0 0.1605 0.02277 0.07627 0.02277 0.13318 0.06602 0.05805 0.04212 0.0922 0.10472 0.03415 0.06261 0.03415 0.14229 0 0.11611-0.07627 0.20262-0.07513 0.08651-0.20831 0.14684-0.13318 0.06033-0.31417 0.09789-0.17985 0.03643-0.3893 0.05464v0.01935q0 0.1457 0.03643 0.26636 0.03756 0.12066 0.10245 0.20717 0.06488 0.08537 0.15253 0.13318 0.08765 0.04781 0.18896 0.04781 0.10245 0 0.20945-0.05009 0.10814-0.05122 0.21855-0.16505zm-0.214-0.91406q0-0.05236-0.01821-0.09789-0.01707-0.04553-0.04895-0.07854-0.03073-0.03415-0.07399-0.0535t-0.09334-0.01935q-0.07399 0-0.13432 0.02618t-0.10814 0.07171q-0.04781 0.04439-0.08423 0.10472-0.03643 0.05919-0.06261 0.12635-0.02504 0.06716-0.04098 0.13774-0.01594 0.07057-0.02277 0.13774 0.16164-0.01138 0.28913-0.0387 0.12863-0.02846 0.21628-0.07171 0.08879-0.04439 0.13546-0.10472 0.04667-0.06147 0.04667-0.14001z" style="fill:#263238;stroke-width:.11656"/>
    <path d="m54.735 14.534q0.0683-0.03529 0.12749-0.08879 0.05919-0.0535 0.10131-0.11611 0.04326-0.06147 0.06716-0.12749 0.02504-0.06602 0.02504-0.12635 0-0.05008-0.01366-0.08082-0.01366-0.03187-0.03415-0.0535-0.01935-0.02163-0.04326-0.03756-0.0239-0.01594-0.04439-0.03415-0.01935-0.01935-0.03301-0.04439-0.01366-0.02618-0.01366-0.0683 0-0.03643 0.01252-0.0683 0.01366-0.03301 0.03643-0.05805 0.0239-0.02504 0.05578-0.0387 0.03301-0.0148 0.07285-0.0148 0.05692 0 0.09903 0.02504 0.04326 0.02504 0.07057 0.06602 0.02846 0.03984 0.04212 0.0922 0.0148 0.05122 0.0148 0.10359 0 0.09106-0.03187 0.19465-0.03073 0.10472-0.0922 0.2049t-0.15367 0.18782q-0.0922 0.08879-0.214 0.14798z" style="fill:#263238;stroke-width:.11656"/>
    <path d="m58.389 14.048-0.0239-0.0034q-0.03301-0.20945-0.06602-0.39044-0.03187-0.18099-0.06488-0.34149-0.03187-0.1605-0.06375-0.30507-0.03073-0.14456-0.06033-0.28002-0.04212-0.18896-0.07513-0.34832-0.03301-0.1605-0.06944-0.30734h-8e-3q-0.04553 0.16506-0.0922 0.31873-0.04667 0.15253-0.09562 0.30279-0.04895 0.14912-0.10245 0.30165-0.0535 0.1514-0.11269 0.31417-0.05919 0.16278-0.12635 0.34149-0.06602 0.17871-0.14115 0.38133l-0.19579 0.01594-0.0239-0.0034q-0.17985-0.90951-0.30962-1.4752-0.12863-0.56688-0.2049-0.79226-0.02049-0.06147-0.04326-0.10358-0.02277-0.04326-0.0535-0.07057-0.03073-0.02732-0.07285-0.03984-0.04098-0.01252-0.09903-0.01252-0.03756 0-0.08196 0.0057-0.04553 0.0046-0.10017 0.01366l-0.01252-0.10131q0.17644-0.04326 0.29254-0.06602 0.11725-0.0239 0.19351-0.0239 0.06033 0 0.09903 0.01708 0.03984 0.01594 0.06716 0.05236 0.02732 0.03643 0.04781 0.09448t0.04326 0.14115q0.03301 0.11838 0.07854 0.30051 0.04667 0.18099 0.10245 0.428 0.05578 0.24701 0.12066 0.56005t0.13546 0.6955h8e-3q0.05692-0.15481 0.11724-0.32783 0.06147-0.17302 0.12408-0.35629 0.06261-0.18327 0.12521-0.37336 0.06261-0.1901 0.12294-0.37906 0.06033-0.1901 0.11611-0.37564 0.05691-0.18554 0.107-0.3597 0.0057-0.02049 0.02732-0.0296 0.02163-0.0091 0.04667-0.0091t0.04553 0.0068q0.0296 0.11383 0.06716 0.27092 0.03756 0.15595 0.07854 0.33922 0.04098 0.18213 0.08423 0.38475 0.04439 0.20148 0.08651 0.40865 0.04326 0.20717 0.0831 0.41207t0.07399 0.39158h0.0057q0.08196-0.17075 0.16278-0.35401 0.08196-0.18441 0.15595-0.36767 0.07513-0.18327 0.13887-0.36084 0.06488-0.17758 0.11155-0.3358 0.04781-0.15822 0.07399-0.29141 0.02732-0.13318 0.02732-0.2288 0-0.05578-0.01024-0.11269-0.0091-0.05692-0.02846-0.107-0.01935-0.05009-0.05009-0.09106-0.0296-0.04098-0.07057-0.06488l0.0046-0.02163q0.02277-0.0034 0.04553-0.0057 0.02277-0.0023 0.04553-0.0023 0.06375 0 0.1218 0.01594 0.05805 0.01594 0.10245 0.05008 0.04439 0.03415 0.07058 0.08879 0.02618 0.05464 0.02618 0.1309 0 0.05805-0.02049 0.15367-0.02049 0.09448-0.05919 0.21855-0.03756 0.12408-0.09107 0.27319-0.0535 0.14798-0.11952 0.31417-0.06488 0.16619-0.14115 0.34718-0.07513 0.17985-0.15822 0.36654-0.08196 0.18554-0.16961 0.3745-0.08651 0.18782-0.1753 0.37109z" style="fill:#263238;stroke-width:.11656"/>
    <path d="m60.151 14.015q-0.0296-0.10814-0.06374-0.22652-0.03301-0.11838-0.0683-0.2379-0.03415-0.11952-0.06944-0.23563-0.03415-0.11611-0.06716-0.22083-0.03187-0.10472-0.06147-0.19351-0.02846-0.08993-0.05122-0.15481-0.0239-0.06716-0.04667-0.10928-0.02163-0.04326-0.04553-0.06716t-0.05009-0.03301q-0.02618-0.0091-0.05805-0.0091-0.03643 0-0.0774 8e-3 -0.04212 8e-3 -0.10017 0.02163l-0.01707-0.08196q0.0683-0.02504 0.13318-0.04553 0.06602-0.02049 0.1218-0.03529 0.05578-0.0148 0.09903-0.02277 0.04326-8e-3 0.0683-8e-3 0.0296 0 0.05578 0.01024 0.02732 0.01025 0.05236 0.03643 0.02618 0.02504 0.05009 0.07057 0.0239 0.04439 0.04781 0.11269 0.01594 0.04326 0.03756 0.11155 0.02277 0.06716 0.04895 0.15367 0.02618 0.08537 0.05578 0.18668 0.0296 0.10131 0.05919 0.21172 0.03073 0.10928 0.06033 0.22425t0.05691 0.22766q0.05692-0.14912 0.11838-0.31076 0.06261-0.16278 0.12635-0.32669 0.06488-0.16392 0.12863-0.32442 0.06374-0.16164 0.12294-0.30848 0.01024-0.02504 0.02732-0.04098 0.01821-0.01594 0.03984-0.02504 0.02163-0.01024 0.04439-0.01366 0.0239-0.0046 0.04667-0.0046 0.03756 0 0.07285 0.01138 0.03529 0.01025 0.06716 0.02618-0.05122 0.0831-0.107 0.18554-0.05464 0.10131-0.11269 0.21742-0.05805 0.11497-0.11725 0.24018-0.05805 0.12521-0.11611 0.25612-0.05805 0.12977-0.11497 0.26181-0.05578 0.1309-0.10814 0.2584-0.0535 0.12863-0.10131 0.25384-0.04781 0.12635-0.09334 0.2436-0.04553 0.11838-0.08993 0.22652-0.04326 0.10928-0.08879 0.20376-0.04326 0.08765-0.0922 0.16278-0.04895 0.07627-0.10814 0.1309-0.05919 0.05578-0.1309 0.08765-0.07057 0.03187-0.15709 0.03187-0.0535 0-0.09676-0.0148-0.04326-0.01366-0.07285-0.03756-0.03073-0.02277-0.04667-0.0535t-0.01594-0.06488q0-0.03756 0.02277-0.07854 0.02163-0.03984 0.05805-0.06033 0.04781 0.0296 0.09676 0.04212t0.08765 0.01252q0.09334 0 0.16505-0.05122 0.07285-0.05008 0.1366-0.15139 0.06374-0.10131 0.12749-0.25384 0.06488-0.15253 0.14343-0.35743l0.02277-0.06033z" style="fill:#263238;stroke-width:.11656"/>
   </g>
  </g>
 </g>
</svg>
